ISO-10303-21;
HEADER;
/* Generated by software containing ST-Developer
 * from STEP Tools, Inc. (www.steptools.com) 
 */

FILE_DESCRIPTION(
/* description */ (''),
/* implementation_level */ '2;1');

FILE_NAME(
/* name */ 'Component1.step',
/* time_stamp */ '2026-08-18T09:23:56-05:00',
/* author */ (''),
/* organization */ (''),
/* preprocessor_version */ 'ST-DEVELOPER v20.1',
/* originating_system */ 'Autodesk Translation Framework v15.8.0.0',
/* authorisation */ '');

FILE_SCHEMA (('AUTOMOTIVE_DESIGN { 1 0 10303 214 3 1 1 }'));
ENDSEC;

DATA;
#10=MECHANICAL_DESIGN_GEOMETRIC_PRESENTATION_REPRESENTATION('',(#13),#517);
#11=SHAPE_REPRESENTATION_RELATIONSHIP('SRR','None',#524,#12);
#12=ADVANCED_BREP_SHAPE_REPRESENTATION('',(#14),#516);
#13=STYLED_ITEM('',(#533),#14);
#14=MANIFOLD_SOLID_BREP('Body1',#321);
#15=FACE_BOUND('',#36,.T.);
#16=FACE_BOUND('',#49,.T.);
#17=FACE_OUTER_BOUND('',#33,.T.);
#18=FACE_OUTER_BOUND('',#34,.T.);
#19=FACE_OUTER_BOUND('',#35,.T.);
#20=FACE_OUTER_BOUND('',#37,.T.);
#21=FACE_OUTER_BOUND('',#38,.T.);
#22=FACE_OUTER_BOUND('',#39,.T.);
#23=FACE_OUTER_BOUND('',#40,.T.);
#24=FACE_OUTER_BOUND('',#41,.T.);
#25=FACE_OUTER_BOUND('',#42,.T.);
#26=FACE_OUTER_BOUND('',#43,.T.);
#27=FACE_OUTER_BOUND('',#44,.T.);
#28=FACE_OUTER_BOUND('',#45,.T.);
#29=FACE_OUTER_BOUND('',#46,.T.);
#30=FACE_OUTER_BOUND('',#47,.T.);
#31=FACE_OUTER_BOUND('',#48,.T.);
#32=FACE_OUTER_BOUND('',#50,.T.);
#33=EDGE_LOOP('',(#205,#206,#207,#208));
#34=EDGE_LOOP('',(#209,#210,#211,#212));
#35=EDGE_LOOP('',(#213,#214,#215,#216,#217,#218));
#36=EDGE_LOOP('',(#219,#220,#221,#222));
#37=EDGE_LOOP('',(#223,#224,#225,#226));
#38=EDGE_LOOP('',(#227,#228,#229,#230));
#39=EDGE_LOOP('',(#231,#232,#233,#234));
#40=EDGE_LOOP('',(#235,#236,#237,#238));
#41=EDGE_LOOP('',(#239,#240,#241,#242));
#42=EDGE_LOOP('',(#243,#244,#245,#246));
#43=EDGE_LOOP('',(#247,#248,#249,#250));
#44=EDGE_LOOP('',(#251,#252,#253,#254,#255,#256,#257,#258,#259,#260,#261,
#262));
#45=EDGE_LOOP('',(#263,#264,#265,#266));
#46=EDGE_LOOP('',(#267,#268,#269,#270));
#47=EDGE_LOOP('',(#271,#272,#273,#274));
#48=EDGE_LOOP('',(#275,#276,#277,#278,#279,#280));
#49=EDGE_LOOP('',(#281,#282,#283,#284));
#50=EDGE_LOOP('',(#285,#286,#287,#288));
#51=LINE('',#431,#93);
#52=LINE('',#433,#94);
#53=LINE('',#435,#95);
#54=LINE('',#436,#96);
#55=LINE('',#440,#97);
#56=LINE('',#442,#98);
#57=LINE('',#444,#99);
#58=LINE('',#445,#100);
#59=LINE('',#448,#101);
#60=LINE('',#450,#102);
#61=LINE('',#452,#103);
#62=LINE('',#454,#104);
#63=LINE('',#455,#105);
#64=LINE('',#457,#106);
#65=LINE('',#459,#107);
#66=LINE('',#460,#108);
#67=LINE('',#463,#109);
#68=LINE('',#464,#110);
#69=LINE('',#467,#111);
#70=LINE('',#468,#112);
#71=LINE('',#470,#113);
#72=LINE('',#473,#114);
#73=LINE('',#474,#115);
#74=LINE('',#477,#116);
#75=LINE('',#478,#117);
#76=LINE('',#482,#118);
#77=LINE('',#483,#119);
#78=LINE('',#484,#120);
#79=LINE('',#486,#121);
#80=LINE('',#489,#122);
#81=LINE('',#491,#123);
#82=LINE('',#493,#124);
#83=LINE('',#495,#125);
#84=LINE('',#496,#126);
#85=LINE('',#499,#127);
#86=LINE('',#501,#128);
#87=LINE('',#502,#129);
#88=LINE('',#505,#130);
#89=LINE('',#506,#131);
#90=LINE('',#509,#132);
#91=LINE('',#510,#133);
#92=LINE('',#512,#134);
#93=VECTOR('',#355,10.);
#94=VECTOR('',#356,10.);
#95=VECTOR('',#357,10.);
#96=VECTOR('',#358,10.);
#97=VECTOR('',#361,10.);
#98=VECTOR('',#362,10.);
#99=VECTOR('',#363,10.);
#100=VECTOR('',#364,10.);
#101=VECTOR('',#367,10.);
#102=VECTOR('',#368,10.);
#103=VECTOR('',#369,10.);
#104=VECTOR('',#370,10.);
#105=VECTOR('',#371,10.);
#106=VECTOR('',#372,10.);
#107=VECTOR('',#373,10.);
#108=VECTOR('',#374,10.);
#109=VECTOR('',#377,10.);
#110=VECTOR('',#378,10.);
#111=VECTOR('',#381,10.);
#112=VECTOR('',#382,10.);
#113=VECTOR('',#385,10.);
#114=VECTOR('',#388,10.);
#115=VECTOR('',#389,10.);
#116=VECTOR('',#392,10.);
#117=VECTOR('',#393,10.);
#118=VECTOR('',#396,10.);
#119=VECTOR('',#397,10.);
#120=VECTOR('',#398,10.);
#121=VECTOR('',#401,10.);
#122=VECTOR('',#404,10.);
#123=VECTOR('',#405,10.);
#124=VECTOR('',#406,10.);
#125=VECTOR('',#407,10.);
#126=VECTOR('',#408,10.);
#127=VECTOR('',#411,10.);
#128=VECTOR('',#412,10.);
#129=VECTOR('',#413,10.);
#130=VECTOR('',#416,10.);
#131=VECTOR('',#417,10.);
#132=VECTOR('',#420,10.);
#133=VECTOR('',#421,10.);
#134=VECTOR('',#424,10.);
#135=VERTEX_POINT('',#429);
#136=VERTEX_POINT('',#430);
#137=VERTEX_POINT('',#432);
#138=VERTEX_POINT('',#434);
#139=VERTEX_POINT('',#438);
#140=VERTEX_POINT('',#439);
#141=VERTEX_POINT('',#441);
#142=VERTEX_POINT('',#443);
#143=VERTEX_POINT('',#447);
#144=VERTEX_POINT('',#449);
#145=VERTEX_POINT('',#451);
#146=VERTEX_POINT('',#453);
#147=VERTEX_POINT('',#456);
#148=VERTEX_POINT('',#458);
#149=VERTEX_POINT('',#462);
#150=VERTEX_POINT('',#466);
#151=VERTEX_POINT('',#472);
#152=VERTEX_POINT('',#476);
#153=VERTEX_POINT('',#480);
#154=VERTEX_POINT('',#481);
#155=VERTEX_POINT('',#488);
#156=VERTEX_POINT('',#490);
#157=VERTEX_POINT('',#492);
#158=VERTEX_POINT('',#494);
#159=VERTEX_POINT('',#498);
#160=VERTEX_POINT('',#500);
#161=VERTEX_POINT('',#504);
#162=VERTEX_POINT('',#508);
#163=EDGE_CURVE('',#135,#136,#51,.T.);
#164=EDGE_CURVE('',#137,#135,#52,.T.);
#165=EDGE_CURVE('',#138,#137,#53,.T.);
#166=EDGE_CURVE('',#136,#138,#54,.T.);
#167=EDGE_CURVE('',#139,#140,#55,.T.);
#168=EDGE_CURVE('',#141,#139,#56,.T.);
#169=EDGE_CURVE('',#142,#141,#57,.T.);
#170=EDGE_CURVE('',#142,#140,#58,.T.);
#171=EDGE_CURVE('',#136,#143,#59,.T.);
#172=EDGE_CURVE('',#144,#143,#60,.T.);
#173=EDGE_CURVE('',#144,#145,#61,.T.);
#174=EDGE_CURVE('',#146,#145,#62,.T.);
#175=EDGE_CURVE('',#135,#146,#63,.T.);
#176=EDGE_CURVE('',#147,#139,#64,.T.);
#177=EDGE_CURVE('',#140,#148,#65,.T.);
#178=EDGE_CURVE('',#148,#147,#66,.T.);
#179=EDGE_CURVE('',#149,#147,#67,.T.);
#180=EDGE_CURVE('',#141,#149,#68,.T.);
#181=EDGE_CURVE('',#149,#150,#69,.T.);
#182=EDGE_CURVE('',#150,#148,#70,.T.);
#183=EDGE_CURVE('',#150,#142,#71,.T.);
#184=EDGE_CURVE('',#138,#151,#72,.T.);
#185=EDGE_CURVE('',#143,#151,#73,.T.);
#186=EDGE_CURVE('',#137,#152,#74,.T.);
#187=EDGE_CURVE('',#151,#152,#75,.T.);
#188=EDGE_CURVE('',#153,#154,#76,.T.);
#189=EDGE_CURVE('',#145,#154,#77,.T.);
#190=EDGE_CURVE('',#153,#144,#78,.T.);
#191=EDGE_CURVE('',#152,#146,#79,.T.);
#192=EDGE_CURVE('',#154,#155,#80,.T.);
#193=EDGE_CURVE('',#155,#156,#81,.T.);
#194=EDGE_CURVE('',#156,#157,#82,.T.);
#195=EDGE_CURVE('',#157,#158,#83,.T.);
#196=EDGE_CURVE('',#158,#153,#84,.T.);
#197=EDGE_CURVE('',#159,#155,#85,.T.);
#198=EDGE_CURVE('',#160,#159,#86,.T.);
#199=EDGE_CURVE('',#156,#160,#87,.T.);
#200=EDGE_CURVE('',#161,#160,#88,.T.);
#201=EDGE_CURVE('',#157,#161,#89,.T.);
#202=EDGE_CURVE('',#162,#161,#90,.T.);
#203=EDGE_CURVE('',#158,#162,#91,.T.);
#204=EDGE_CURVE('',#159,#162,#92,.T.);
#205=ORIENTED_EDGE('',*,*,#163,.F.);
#206=ORIENTED_EDGE('',*,*,#164,.F.);
#207=ORIENTED_EDGE('',*,*,#165,.F.);
#208=ORIENTED_EDGE('',*,*,#166,.F.);
#209=ORIENTED_EDGE('',*,*,#167,.F.);
#210=ORIENTED_EDGE('',*,*,#168,.F.);
#211=ORIENTED_EDGE('',*,*,#169,.F.);
#212=ORIENTED_EDGE('',*,*,#170,.T.);
#213=ORIENTED_EDGE('',*,*,#171,.T.);
#214=ORIENTED_EDGE('',*,*,#172,.F.);
#215=ORIENTED_EDGE('',*,*,#173,.T.);
#216=ORIENTED_EDGE('',*,*,#174,.F.);
#217=ORIENTED_EDGE('',*,*,#175,.F.);
#218=ORIENTED_EDGE('',*,*,#163,.T.);
#219=ORIENTED_EDGE('',*,*,#176,.T.);
#220=ORIENTED_EDGE('',*,*,#167,.T.);
#221=ORIENTED_EDGE('',*,*,#177,.T.);
#222=ORIENTED_EDGE('',*,*,#178,.T.);
#223=ORIENTED_EDGE('',*,*,#176,.F.);
#224=ORIENTED_EDGE('',*,*,#179,.F.);
#225=ORIENTED_EDGE('',*,*,#180,.F.);
#226=ORIENTED_EDGE('',*,*,#168,.T.);
#227=ORIENTED_EDGE('',*,*,#181,.F.);
#228=ORIENTED_EDGE('',*,*,#179,.T.);
#229=ORIENTED_EDGE('',*,*,#178,.F.);
#230=ORIENTED_EDGE('',*,*,#182,.F.);
#231=ORIENTED_EDGE('',*,*,#182,.T.);
#232=ORIENTED_EDGE('',*,*,#177,.F.);
#233=ORIENTED_EDGE('',*,*,#170,.F.);
#234=ORIENTED_EDGE('',*,*,#183,.F.);
#235=ORIENTED_EDGE('',*,*,#184,.T.);
#236=ORIENTED_EDGE('',*,*,#185,.F.);
#237=ORIENTED_EDGE('',*,*,#171,.F.);
#238=ORIENTED_EDGE('',*,*,#166,.T.);
#239=ORIENTED_EDGE('',*,*,#186,.T.);
#240=ORIENTED_EDGE('',*,*,#187,.F.);
#241=ORIENTED_EDGE('',*,*,#184,.F.);
#242=ORIENTED_EDGE('',*,*,#165,.T.);
#243=ORIENTED_EDGE('',*,*,#188,.T.);
#244=ORIENTED_EDGE('',*,*,#189,.F.);
#245=ORIENTED_EDGE('',*,*,#173,.F.);
#246=ORIENTED_EDGE('',*,*,#190,.F.);
#247=ORIENTED_EDGE('',*,*,#175,.T.);
#248=ORIENTED_EDGE('',*,*,#191,.F.);
#249=ORIENTED_EDGE('',*,*,#186,.F.);
#250=ORIENTED_EDGE('',*,*,#164,.T.);
#251=ORIENTED_EDGE('',*,*,#174,.T.);
#252=ORIENTED_EDGE('',*,*,#189,.T.);
#253=ORIENTED_EDGE('',*,*,#192,.T.);
#254=ORIENTED_EDGE('',*,*,#193,.T.);
#255=ORIENTED_EDGE('',*,*,#194,.T.);
#256=ORIENTED_EDGE('',*,*,#195,.T.);
#257=ORIENTED_EDGE('',*,*,#196,.T.);
#258=ORIENTED_EDGE('',*,*,#190,.T.);
#259=ORIENTED_EDGE('',*,*,#172,.T.);
#260=ORIENTED_EDGE('',*,*,#185,.T.);
#261=ORIENTED_EDGE('',*,*,#187,.T.);
#262=ORIENTED_EDGE('',*,*,#191,.T.);
#263=ORIENTED_EDGE('',*,*,#197,.F.);
#264=ORIENTED_EDGE('',*,*,#198,.F.);
#265=ORIENTED_EDGE('',*,*,#199,.F.);
#266=ORIENTED_EDGE('',*,*,#193,.F.);
#267=ORIENTED_EDGE('',*,*,#199,.T.);
#268=ORIENTED_EDGE('',*,*,#200,.F.);
#269=ORIENTED_EDGE('',*,*,#201,.F.);
#270=ORIENTED_EDGE('',*,*,#194,.F.);
#271=ORIENTED_EDGE('',*,*,#201,.T.);
#272=ORIENTED_EDGE('',*,*,#202,.F.);
#273=ORIENTED_EDGE('',*,*,#203,.F.);
#274=ORIENTED_EDGE('',*,*,#195,.F.);
#275=ORIENTED_EDGE('',*,*,#203,.T.);
#276=ORIENTED_EDGE('',*,*,#204,.F.);
#277=ORIENTED_EDGE('',*,*,#197,.T.);
#278=ORIENTED_EDGE('',*,*,#192,.F.);
#279=ORIENTED_EDGE('',*,*,#188,.F.);
#280=ORIENTED_EDGE('',*,*,#196,.F.);
#281=ORIENTED_EDGE('',*,*,#180,.T.);
#282=ORIENTED_EDGE('',*,*,#181,.T.);
#283=ORIENTED_EDGE('',*,*,#183,.T.);
#284=ORIENTED_EDGE('',*,*,#169,.T.);
#285=ORIENTED_EDGE('',*,*,#204,.T.);
#286=ORIENTED_EDGE('',*,*,#202,.T.);
#287=ORIENTED_EDGE('',*,*,#200,.T.);
#288=ORIENTED_EDGE('',*,*,#198,.T.);
#289=PLANE('',#335);
#290=PLANE('',#336);
#291=PLANE('',#337);
#292=PLANE('',#338);
#293=PLANE('',#339);
#294=PLANE('',#340);
#295=PLANE('',#341);
#296=PLANE('',#342);
#297=PLANE('',#343);
#298=PLANE('',#344);
#299=PLANE('',#345);
#300=PLANE('',#346);
#301=PLANE('',#347);
#302=PLANE('',#348);
#303=PLANE('',#349);
#304=PLANE('',#350);
#305=ADVANCED_FACE('',(#17),#289,.F.);
#306=ADVANCED_FACE('',(#18),#290,.F.);
#307=ADVANCED_FACE('',(#19,#15),#291,.T.);
#308=ADVANCED_FACE('',(#20),#292,.T.);
#309=ADVANCED_FACE('',(#21),#293,.T.);
#310=ADVANCED_FACE('',(#22),#294,.F.);
#311=ADVANCED_FACE('',(#23),#295,.T.);
#312=ADVANCED_FACE('',(#24),#296,.T.);
#313=ADVANCED_FACE('',(#25),#297,.T.);
#314=ADVANCED_FACE('',(#26),#298,.T.);
#315=ADVANCED_FACE('',(#27),#299,.T.);
#316=ADVANCED_FACE('',(#28),#300,.T.);
#317=ADVANCED_FACE('',(#29),#301,.T.);
#318=ADVANCED_FACE('',(#30),#302,.T.);
#319=ADVANCED_FACE('',(#31,#16),#303,.T.);
#320=ADVANCED_FACE('',(#32),#304,.T.);
#321=CLOSED_SHELL('',(#305,#306,#307,#308,#309,#310,#311,#312,#313,#314,
#315,#316,#317,#318,#319,#320));
#322=DERIVED_UNIT_ELEMENT(#324,1.);
#323=DERIVED_UNIT_ELEMENT(#519,-3.);
#324=(
MASS_UNIT()
NAMED_UNIT(*)
SI_UNIT(.KILO.,.GRAM.)
);
#325=DERIVED_UNIT((#322,#323));
#326=MEASURE_REPRESENTATION_ITEM('density measure',
POSITIVE_RATIO_MEASURE(7850.),#325);
#327=PROPERTY_DEFINITION_REPRESENTATION(#332,#329);
#328=PROPERTY_DEFINITION_REPRESENTATION(#333,#330);
#329=REPRESENTATION('material name',(#331),#516);
#330=REPRESENTATION('density',(#326),#516);
#331=DESCRIPTIVE_REPRESENTATION_ITEM('Steel','Steel');
#332=PROPERTY_DEFINITION('material property','material name',#526);
#333=PROPERTY_DEFINITION('material property','density of part',#526);
#334=AXIS2_PLACEMENT_3D('',#427,#351,#352);
#335=AXIS2_PLACEMENT_3D('',#428,#353,#354);
#336=AXIS2_PLACEMENT_3D('',#437,#359,#360);
#337=AXIS2_PLACEMENT_3D('',#446,#365,#366);
#338=AXIS2_PLACEMENT_3D('',#461,#375,#376);
#339=AXIS2_PLACEMENT_3D('',#465,#379,#380);
#340=AXIS2_PLACEMENT_3D('',#469,#383,#384);
#341=AXIS2_PLACEMENT_3D('',#471,#386,#387);
#342=AXIS2_PLACEMENT_3D('',#475,#390,#391);
#343=AXIS2_PLACEMENT_3D('',#479,#394,#395);
#344=AXIS2_PLACEMENT_3D('',#485,#399,#400);
#345=AXIS2_PLACEMENT_3D('',#487,#402,#403);
#346=AXIS2_PLACEMENT_3D('',#497,#409,#410);
#347=AXIS2_PLACEMENT_3D('',#503,#414,#415);
#348=AXIS2_PLACEMENT_3D('',#507,#418,#419);
#349=AXIS2_PLACEMENT_3D('',#511,#422,#423);
#350=AXIS2_PLACEMENT_3D('',#513,#425,#426);
#351=DIRECTION('axis',(0.,0.,1.));
#352=DIRECTION('refdir',(1.,0.,0.));
#353=DIRECTION('center_axis',(0.,0.,-1.));
#354=DIRECTION('ref_axis',(-1.,0.,0.));
#355=DIRECTION('',(0.,1.,0.));
#356=DIRECTION('',(-1.,0.,0.));
#357=DIRECTION('',(0.,-1.,0.));
#358=DIRECTION('',(1.,0.,0.));
#359=DIRECTION('center_axis',(0.,0.,1.));
#360=DIRECTION('ref_axis',(0.,-1.,0.));
#361=DIRECTION('',(0.,1.,0.));
#362=DIRECTION('',(1.,0.,0.));
#363=DIRECTION('',(0.,-1.,0.));
#364=DIRECTION('',(1.,0.,0.));
#365=DIRECTION('center_axis',(1.,0.,0.));
#366=DIRECTION('ref_axis',(0.,1.,0.));
#367=DIRECTION('',(0.,0.,1.));
#368=DIRECTION('',(0.,1.,0.));
#369=DIRECTION('',(0.,-1.,-1.32454761726643E-8));
#370=DIRECTION('',(0.,1.,0.));
#371=DIRECTION('',(0.,0.,1.));
#372=DIRECTION('',(0.,0.,1.));
#373=DIRECTION('',(0.,0.,-1.));
#374=DIRECTION('',(0.,-1.,0.));
#375=DIRECTION('center_axis',(0.,1.,0.));
#376=DIRECTION('ref_axis',(0.,0.,1.));
#377=DIRECTION('',(1.,0.,0.));
#378=DIRECTION('',(0.,0.,-1.));
#379=DIRECTION('center_axis',(0.,0.,1.));
#380=DIRECTION('ref_axis',(0.,-1.,0.));
#381=DIRECTION('',(0.,1.,0.));
#382=DIRECTION('',(1.,0.,0.));
#383=DIRECTION('center_axis',(0.,1.,0.));
#384=DIRECTION('ref_axis',(0.,0.,1.));
#385=DIRECTION('',(0.,0.,1.));
#386=DIRECTION('center_axis',(0.,-1.,0.));
#387=DIRECTION('ref_axis',(1.,0.,0.));
#388=DIRECTION('',(0.,0.,1.));
#389=DIRECTION('',(1.,0.,0.));
#390=DIRECTION('center_axis',(-1.,0.,0.));
#391=DIRECTION('ref_axis',(0.,-1.,0.));
#392=DIRECTION('',(0.,0.,1.));
#393=DIRECTION('',(0.,-1.,0.));
#394=DIRECTION('center_axis',(0.,-1.32454761726643E-8,1.));
#395=DIRECTION('ref_axis',(0.,-1.,-1.32454761726643E-8));
#396=DIRECTION('',(0.,-1.,-1.32454761726643E-8));
#397=DIRECTION('',(-0.999999999999964,2.68220896308207E-7,0.));
#398=DIRECTION('',(1.,0.,0.));
#399=DIRECTION('center_axis',(0.,1.,0.));
#400=DIRECTION('ref_axis',(-1.,0.,0.));
#401=DIRECTION('',(-1.,0.,0.));
#402=DIRECTION('center_axis',(0.,0.,1.));
#403=DIRECTION('ref_axis',(1.,0.,0.));
#404=DIRECTION('',(0.,-1.,0.));
#405=DIRECTION('',(1.,0.,0.));
#406=DIRECTION('',(0.,1.,0.));
#407=DIRECTION('',(-1.,0.,0.));
#408=DIRECTION('',(0.,-1.,0.));
#409=DIRECTION('center_axis',(0.,-1.,0.));
#410=DIRECTION('ref_axis',(-1.,0.,0.));
#411=DIRECTION('',(0.,0.,1.));
#412=DIRECTION('',(-1.,0.,0.));
#413=DIRECTION('',(0.,0.,-1.));
#414=DIRECTION('center_axis',(1.,0.,0.));
#415=DIRECTION('ref_axis',(0.,-1.,0.));
#416=DIRECTION('',(0.,-1.,0.));
#417=DIRECTION('',(0.,0.,-1.));
#418=DIRECTION('center_axis',(0.,1.,0.));
#419=DIRECTION('ref_axis',(1.,0.,0.));
#420=DIRECTION('',(1.,0.,0.));
#421=DIRECTION('',(0.,0.,-1.));
#422=DIRECTION('center_axis',(-1.,0.,0.));
#423=DIRECTION('ref_axis',(0.,1.,0.));
#424=DIRECTION('',(0.,1.,0.));
#425=DIRECTION('center_axis',(0.,0.,-1.));
#426=DIRECTION('ref_axis',(-1.,0.,0.));
#427=CARTESIAN_POINT('',(0.,0.,0.));
#428=CARTESIAN_POINT('Origin',(37.5,21.2500003166497,-1.5));
#429=CARTESIAN_POINT('',(0.,0.,-1.5));
#430=CARTESIAN_POINT('',(0.,42.5000006332994,-1.5));
#431=CARTESIAN_POINT('',(0.,28.6250001583248,-1.5));
#432=CARTESIAN_POINT('',(75.,0.,-1.5));
#433=CARTESIAN_POINT('',(56.25,0.,-1.5));
#434=CARTESIAN_POINT('',(75.,42.5000006332994,-1.5));
#435=CARTESIAN_POINT('',(75.,31.8750001583248,-1.5));
#436=CARTESIAN_POINT('',(18.75,42.5,-1.5));
#437=CARTESIAN_POINT('Origin',(-1.00000001490116,37.000000551343,7.50000011175871));
#438=CARTESIAN_POINT('',(0.,26.5000003948808,7.50000011175871));
#439=CARTESIAN_POINT('',(0.,37.000000551343,7.50000011175871));
#440=CARTESIAN_POINT('',(0.,36.5000002756715,7.50000011175871));
#441=CARTESIAN_POINT('',(-1.00000001490116,26.5000003948808,7.50000011175871));
#442=CARTESIAN_POINT('',(-1.00000001490116,26.5000003948808,7.50000011175871));
#443=CARTESIAN_POINT('',(-1.00000001490116,37.000000551343,7.50000011175871));
#444=CARTESIAN_POINT('',(-1.00000001490116,18.0000004023314,7.50000011175871));
#445=CARTESIAN_POINT('',(-1.00000001490116,37.000000551343,7.50000011175871));
#446=CARTESIAN_POINT('Origin',(0.,36.,0.));
#447=CARTESIAN_POINT('',(0.,42.5,8.));
#448=CARTESIAN_POINT('',(0.,42.5,0.));
#449=CARTESIAN_POINT('',(0.,36.,8.));
#450=CARTESIAN_POINT('',(0.,42.5,8.));
#451=CARTESIAN_POINT('',(0.,27.,8.));
#452=CARTESIAN_POINT('',(-1.49011611383365E-8,36.0000005364418,8.00000011920929));
#453=CARTESIAN_POINT('',(0.,0.,8.));
#454=CARTESIAN_POINT('',(0.,0.,8.));
#455=CARTESIAN_POINT('',(0.,0.,0.));
#456=CARTESIAN_POINT('',(-1.49011611383365E-8,26.5000003948808,3.50000005215406));
#457=CARTESIAN_POINT('',(0.,26.5000003948808,3.75000005587935));
#458=CARTESIAN_POINT('',(-1.49011611383365E-8,37.000000551343,3.50000005215406));
#459=CARTESIAN_POINT('',(0.,37.000000551343,3.25000004842877));
#460=CARTESIAN_POINT('',(-1.49011611383365E-8,26.5000003948808,3.50000005215406));
#461=CARTESIAN_POINT('Origin',(-1.00000001490116,26.5000003948808,3.50000005215406));
#462=CARTESIAN_POINT('',(-1.00000001490116,26.5000003948808,3.50000005215406));
#463=CARTESIAN_POINT('',(-1.00000001490116,26.5000003948808,3.50000005215406));
#464=CARTESIAN_POINT('',(-1.00000001490116,26.5000003948808,7.50000011175871));
#465=CARTESIAN_POINT('Origin',(-1.00000001490116,37.000000551343,3.50000005215406));
#466=CARTESIAN_POINT('',(-1.00000001490116,37.000000551343,3.50000005215406));
#467=CARTESIAN_POINT('',(-1.00000001490116,26.5000003948808,3.50000005215406));
#468=CARTESIAN_POINT('',(-1.00000001490116,37.000000551343,3.50000005215406));
#469=CARTESIAN_POINT('Origin',(-1.00000001490116,37.000000551343,2.5000000372529));
#470=CARTESIAN_POINT('',(-1.00000001490116,37.000000551343,3.25000004842877));
#471=CARTESIAN_POINT('Origin',(0.,42.5,0.));
#472=CARTESIAN_POINT('',(75.,42.5,8.));
#473=CARTESIAN_POINT('',(75.,42.5,0.));
#474=CARTESIAN_POINT('',(75.,42.5,8.));
#475=CARTESIAN_POINT('Origin',(75.,42.5,0.));
#476=CARTESIAN_POINT('',(75.,0.,8.));
#477=CARTESIAN_POINT('',(75.,0.,0.));
#478=CARTESIAN_POINT('',(75.,0.,8.));
#479=CARTESIAN_POINT('Origin',(-1.00000001490116,36.0000005364418,8.00000011920929));
#480=CARTESIAN_POINT('',(-1.00000001490116,36.,8.));
#481=CARTESIAN_POINT('',(-1.00000001490109,27.0000002682209,8.));
#482=CARTESIAN_POINT('',(-1.00000001490116,36.0000005364418,8.00000011920929));
#483=CARTESIAN_POINT('',(-1.50000002235174,27.0000004023314,8.));
#484=CARTESIAN_POINT('',(0.,36.,8.));
#485=CARTESIAN_POINT('Origin',(75.,0.,0.));
#486=CARTESIAN_POINT('',(0.,0.,8.));
#487=CARTESIAN_POINT('Origin',(37.5000005587935,21.500000320375,8.));
#488=CARTESIAN_POINT('',(-1.00000001490116,-1.00000001490116,8.));
#489=CARTESIAN_POINT('',(-1.00000001490116,-1.00000001490116,8.));
#490=CARTESIAN_POINT('',(76.0000011324883,-1.00000001490116,8.));
#491=CARTESIAN_POINT('',(76.0000011324883,-1.00000001490116,8.));
#492=CARTESIAN_POINT('',(76.0000011324883,44.0000006556511,8.));
#493=CARTESIAN_POINT('',(76.0000011324883,44.0000006556511,8.));
#494=CARTESIAN_POINT('',(-1.00000001490116,44.0000006556511,8.));
#495=CARTESIAN_POINT('',(-1.00000001490116,44.0000006556511,8.));
#496=CARTESIAN_POINT('',(-1.00000001490116,36.0000005364418,8.));
#497=CARTESIAN_POINT('Origin',(76.0000011324883,-1.00000001490116,0.));
#498=CARTESIAN_POINT('',(-1.00000001490116,-1.00000001490116,-2.));
#499=CARTESIAN_POINT('',(-1.00000001490116,-1.00000001490116,0.));
#500=CARTESIAN_POINT('',(76.0000011324883,-1.00000001490116,-2.));
#501=CARTESIAN_POINT('',(76.0000011324883,-1.00000001490116,-2.));
#502=CARTESIAN_POINT('',(76.0000011324883,-1.00000001490116,0.));
#503=CARTESIAN_POINT('Origin',(76.0000011324883,44.0000006556511,0.));
#504=CARTESIAN_POINT('',(76.0000011324883,44.0000006556511,-2.));
#505=CARTESIAN_POINT('',(76.0000011324883,44.0000006556511,-2.));
#506=CARTESIAN_POINT('',(76.0000011324883,44.0000006556511,0.));
#507=CARTESIAN_POINT('Origin',(-1.00000001490116,44.0000006556511,0.));
#508=CARTESIAN_POINT('',(-1.00000001490116,44.0000006556511,-2.));
#509=CARTESIAN_POINT('',(-1.00000001490116,44.0000006556511,-2.));
#510=CARTESIAN_POINT('',(-1.00000001490116,44.0000006556511,0.));
#511=CARTESIAN_POINT('Origin',(-1.00000001490116,-0.999999746680262,0.));
#512=CARTESIAN_POINT('',(-1.00000001490116,27.5000004097819,-2.));
#513=CARTESIAN_POINT('Origin',(37.5000005587935,21.500000320375,-2.));
#514=UNCERTAINTY_MEASURE_WITH_UNIT(LENGTH_MEASURE(0.01),#518,
'DISTANCE_ACCURACY_VALUE',
'Maximum model space distance between geometric entities at asserted c
onnectivities');
#515=UNCERTAINTY_MEASURE_WITH_UNIT(LENGTH_MEASURE(0.01),#518,
'DISTANCE_ACCURACY_VALUE',
'Maximum model space distance between geometric entities at asserted c
onnectivities');
#516=(
GEOMETRIC_REPRESENTATION_CONTEXT(3)
GLOBAL_UNCERTAINTY_ASSIGNED_CONTEXT((#514))
GLOBAL_UNIT_ASSIGNED_CONTEXT((#518,#520,#521))
REPRESENTATION_CONTEXT('','3D')
);
#517=(
GEOMETRIC_REPRESENTATION_CONTEXT(3)
GLOBAL_UNCERTAINTY_ASSIGNED_CONTEXT((#515))
GLOBAL_UNIT_ASSIGNED_CONTEXT((#518,#520,#521))
REPRESENTATION_CONTEXT('','3D')
);
#518=(
LENGTH_UNIT()
NAMED_UNIT(*)
SI_UNIT(.MILLI.,.METRE.)
);
#519=(
LENGTH_UNIT()
NAMED_UNIT(*)
SI_UNIT($,.METRE.)
);
#520=(
NAMED_UNIT(*)
PLANE_ANGLE_UNIT()
SI_UNIT($,.RADIAN.)
);
#521=(
NAMED_UNIT(*)
SI_UNIT($,.STERADIAN.)
SOLID_ANGLE_UNIT()
);
#522=SHAPE_DEFINITION_REPRESENTATION(#523,#524);
#523=PRODUCT_DEFINITION_SHAPE('',$,#526);
#524=SHAPE_REPRESENTATION('',(#334),#516);
#525=PRODUCT_DEFINITION_CONTEXT('part definition',#530,'design');
#526=PRODUCT_DEFINITION('2026-08-18-09-23-56-030','FusionComponent',#527,
#525);
#527=PRODUCT_DEFINITION_FORMATION('',$,#532);
#528=PRODUCT_RELATED_PRODUCT_CATEGORY('FusionComponent',
'FusionComponent',(#532));
#529=APPLICATION_PROTOCOL_DEFINITION('international standard',
'automotive_design',2009,#530);
#530=APPLICATION_CONTEXT(
'Core Data for Automotive Mechanical Design Process');
#531=PRODUCT_CONTEXT('part definition',#530,'mechanical');
#532=PRODUCT('2026-08-18-09-23-56-030','FusionComponent',$,(#531));
#533=PRESENTATION_STYLE_ASSIGNMENT((#534));
#534=SURFACE_STYLE_USAGE(.BOTH.,#535);
#535=SURFACE_SIDE_STYLE('',(#536));
#536=SURFACE_STYLE_FILL_AREA(#537);
#537=FILL_AREA_STYLE('Steel - Satin',(#538));
#538=FILL_AREA_STYLE_COLOUR('Steel - Satin',#539);
#539=COLOUR_RGB('Steel - Satin',0.627450980392157,0.627450980392157,0.627450980392157);
ENDSEC;
END-ISO-10303-21;
