ISO-10303-21;
HEADER;
/* Generated by software containing ST-Developer
 * from STEP Tools, Inc. (www.steptools.com) 
 */

FILE_DESCRIPTION(
/* description */ (''),
/* implementation_level */ '2;1');

FILE_NAME(
/* name */ 'base.step',
/* time_stamp */ '2026-08-16T21:11:29-05:00',
/* author */ (''),
/* organization */ (''),
/* preprocessor_version */ 'ST-DEVELOPER v20.1',
/* originating_system */ 'Autodesk Translation Framework v15.8.0.0',
/* authorisation */ '');

FILE_SCHEMA (('AUTOMOTIVE_DESIGN { 1 0 10303 214 3 1 1 }'));
ENDSEC;

DATA;
#10=MECHANICAL_DESIGN_GEOMETRIC_PRESENTATION_REPRESENTATION('',(#13),#639);
#11=SHAPE_REPRESENTATION_RELATIONSHIP('SRR','None',#646,#12);
#12=ADVANCED_BREP_SHAPE_REPRESENTATION('',(#14),#638);
#13=STYLED_ITEM('',(#655),#14);
#14=MANIFOLD_SOLID_BREP('Body1',#399);
#15=FACE_BOUND('',#49,.T.);
#16=FACE_OUTER_BOUND('',#35,.T.);
#17=FACE_OUTER_BOUND('',#36,.T.);
#18=FACE_OUTER_BOUND('',#37,.T.);
#19=FACE_OUTER_BOUND('',#38,.T.);
#20=FACE_OUTER_BOUND('',#39,.T.);
#21=FACE_OUTER_BOUND('',#40,.T.);
#22=FACE_OUTER_BOUND('',#41,.T.);
#23=FACE_OUTER_BOUND('',#42,.T.);
#24=FACE_OUTER_BOUND('',#43,.T.);
#25=FACE_OUTER_BOUND('',#44,.T.);
#26=FACE_OUTER_BOUND('',#45,.T.);
#27=FACE_OUTER_BOUND('',#46,.T.);
#28=FACE_OUTER_BOUND('',#47,.T.);
#29=FACE_OUTER_BOUND('',#48,.T.);
#30=FACE_OUTER_BOUND('',#50,.T.);
#31=FACE_OUTER_BOUND('',#51,.T.);
#32=FACE_OUTER_BOUND('',#52,.T.);
#33=FACE_OUTER_BOUND('',#53,.T.);
#34=FACE_OUTER_BOUND('',#54,.T.);
#35=EDGE_LOOP('',(#253,#254,#255,#256));
#36=EDGE_LOOP('',(#257,#258,#259,#260));
#37=EDGE_LOOP('',(#261,#262,#263,#264));
#38=EDGE_LOOP('',(#265,#266,#267,#268));
#39=EDGE_LOOP('',(#269,#270,#271,#272));
#40=EDGE_LOOP('',(#273,#274,#275,#276,#277,#278,#279,#280,#281,#282,#283,
#284,#285,#286));
#41=EDGE_LOOP('',(#287,#288,#289,#290));
#42=EDGE_LOOP('',(#291,#292,#293,#294,#295,#296,#297,#298));
#43=EDGE_LOOP('',(#299,#300,#301,#302));
#44=EDGE_LOOP('',(#303,#304,#305,#306));
#45=EDGE_LOOP('',(#307,#308,#309,#310));
#46=EDGE_LOOP('',(#311,#312,#313,#314));
#47=EDGE_LOOP('',(#315,#316,#317,#318));
#48=EDGE_LOOP('',(#319,#320,#321,#322,#323,#324));
#49=EDGE_LOOP('',(#325,#326,#327,#328,#329,#330,#331,#332));
#50=EDGE_LOOP('',(#333,#334,#335,#336));
#51=EDGE_LOOP('',(#337,#338,#339,#340));
#52=EDGE_LOOP('',(#341,#342,#343,#344));
#53=EDGE_LOOP('',(#345,#346,#347,#348,#349,#350,#351,#352,#353,#354,#355,
#356));
#54=EDGE_LOOP('',(#357,#358,#359,#360));
#55=LINE('',#530,#109);
#56=LINE('',#532,#110);
#57=LINE('',#534,#111);
#58=LINE('',#535,#112);
#59=LINE('',#538,#113);
#60=LINE('',#540,#114);
#61=LINE('',#541,#115);
#62=LINE('',#544,#116);
#63=LINE('',#546,#117);
#64=LINE('',#547,#118);
#65=LINE('',#550,#119);
#66=LINE('',#552,#120);
#67=LINE('',#553,#121);
#68=LINE('',#556,#122);
#69=LINE('',#558,#123);
#70=LINE('',#559,#124);
#71=LINE('',#562,#125);
#72=LINE('',#564,#126);
#73=LINE('',#566,#127);
#74=LINE('',#568,#128);
#75=LINE('',#570,#129);
#76=LINE('',#572,#130);
#77=LINE('',#574,#131);
#78=LINE('',#576,#132);
#79=LINE('',#577,#133);
#80=LINE('',#580,#134);
#81=LINE('',#581,#135);
#82=LINE('',#584,#136);
#83=LINE('',#586,#137);
#84=LINE('',#587,#138);
#85=LINE('',#589,#139);
#86=LINE('',#590,#140);
#87=LINE('',#593,#141);
#88=LINE('',#594,#142);
#89=LINE('',#597,#143);
#90=LINE('',#598,#144);
#91=LINE('',#602,#145);
#92=LINE('',#603,#146);
#93=LINE('',#604,#147);
#94=LINE('',#606,#148);
#95=LINE('',#608,#149);
#96=LINE('',#612,#150);
#97=LINE('',#614,#151);
#98=LINE('',#615,#152);
#99=LINE('',#617,#153);
#100=LINE('',#618,#154);
#101=LINE('',#621,#155);
#102=LINE('',#623,#156);
#103=LINE('',#624,#157);
#104=LINE('',#627,#158);
#105=LINE('',#629,#159);
#106=LINE('',#630,#160);
#107=LINE('',#632,#161);
#108=LINE('',#633,#162);
#109=VECTOR('',#436,10.);
#110=VECTOR('',#437,10.);
#111=VECTOR('',#438,10.);
#112=VECTOR('',#439,10.);
#113=VECTOR('',#442,10.);
#114=VECTOR('',#443,10.);
#115=VECTOR('',#444,10.);
#116=VECTOR('',#447,10.);
#117=VECTOR('',#448,10.);
#118=VECTOR('',#449,10.);
#119=VECTOR('',#452,10.);
#120=VECTOR('',#453,10.);
#121=VECTOR('',#454,10.);
#122=VECTOR('',#457,10.);
#123=VECTOR('',#458,10.);
#124=VECTOR('',#459,10.);
#125=VECTOR('',#462,10.);
#126=VECTOR('',#463,10.);
#127=VECTOR('',#464,10.);
#128=VECTOR('',#465,10.);
#129=VECTOR('',#466,10.);
#130=VECTOR('',#467,10.);
#131=VECTOR('',#468,10.);
#132=VECTOR('',#469,10.);
#133=VECTOR('',#470,10.);
#134=VECTOR('',#473,10.);
#135=VECTOR('',#474,10.);
#136=VECTOR('',#477,10.);
#137=VECTOR('',#478,10.);
#138=VECTOR('',#479,10.);
#139=VECTOR('',#480,10.);
#140=VECTOR('',#481,10.);
#141=VECTOR('',#484,10.);
#142=VECTOR('',#485,10.);
#143=VECTOR('',#488,10.);
#144=VECTOR('',#489,10.);
#145=VECTOR('',#492,10.);
#146=VECTOR('',#493,10.);
#147=VECTOR('',#494,10.);
#148=VECTOR('',#497,10.);
#149=VECTOR('',#500,10.);
#150=VECTOR('',#503,10.);
#151=VECTOR('',#504,10.);
#152=VECTOR('',#505,10.);
#153=VECTOR('',#506,10.);
#154=VECTOR('',#507,10.);
#155=VECTOR('',#510,10.);
#156=VECTOR('',#511,10.);
#157=VECTOR('',#512,10.);
#158=VECTOR('',#515,10.);
#159=VECTOR('',#516,10.);
#160=VECTOR('',#517,10.);
#161=VECTOR('',#520,10.);
#162=VECTOR('',#521,10.);
#163=VERTEX_POINT('',#528);
#164=VERTEX_POINT('',#529);
#165=VERTEX_POINT('',#531);
#166=VERTEX_POINT('',#533);
#167=VERTEX_POINT('',#537);
#168=VERTEX_POINT('',#539);
#169=VERTEX_POINT('',#543);
#170=VERTEX_POINT('',#545);
#171=VERTEX_POINT('',#549);
#172=VERTEX_POINT('',#551);
#173=VERTEX_POINT('',#555);
#174=VERTEX_POINT('',#557);
#175=VERTEX_POINT('',#561);
#176=VERTEX_POINT('',#563);
#177=VERTEX_POINT('',#565);
#178=VERTEX_POINT('',#567);
#179=VERTEX_POINT('',#569);
#180=VERTEX_POINT('',#571);
#181=VERTEX_POINT('',#573);
#182=VERTEX_POINT('',#575);
#183=VERTEX_POINT('',#579);
#184=VERTEX_POINT('',#583);
#185=VERTEX_POINT('',#585);
#186=VERTEX_POINT('',#588);
#187=VERTEX_POINT('',#592);
#188=VERTEX_POINT('',#596);
#189=VERTEX_POINT('',#600);
#190=VERTEX_POINT('',#601);
#191=VERTEX_POINT('',#610);
#192=VERTEX_POINT('',#611);
#193=VERTEX_POINT('',#613);
#194=VERTEX_POINT('',#616);
#195=VERTEX_POINT('',#620);
#196=VERTEX_POINT('',#622);
#197=VERTEX_POINT('',#626);
#198=VERTEX_POINT('',#628);
#199=EDGE_CURVE('',#163,#164,#55,.T.);
#200=EDGE_CURVE('',#165,#163,#56,.T.);
#201=EDGE_CURVE('',#166,#165,#57,.T.);
#202=EDGE_CURVE('',#166,#164,#58,.T.);
#203=EDGE_CURVE('',#164,#167,#59,.T.);
#204=EDGE_CURVE('',#168,#166,#60,.T.);
#205=EDGE_CURVE('',#168,#167,#61,.T.);
#206=EDGE_CURVE('',#167,#169,#62,.T.);
#207=EDGE_CURVE('',#170,#168,#63,.T.);
#208=EDGE_CURVE('',#169,#170,#64,.T.);
#209=EDGE_CURVE('',#171,#163,#65,.T.);
#210=EDGE_CURVE('',#172,#171,#66,.T.);
#211=EDGE_CURVE('',#165,#172,#67,.T.);
#212=EDGE_CURVE('',#173,#171,#68,.T.);
#213=EDGE_CURVE('',#174,#173,#69,.T.);
#214=EDGE_CURVE('',#172,#174,#70,.T.);
#215=EDGE_CURVE('',#175,#169,#71,.T.);
#216=EDGE_CURVE('',#175,#176,#72,.T.);
#217=EDGE_CURVE('',#176,#177,#73,.T.);
#218=EDGE_CURVE('',#178,#177,#74,.T.);
#219=EDGE_CURVE('',#178,#179,#75,.T.);
#220=EDGE_CURVE('',#180,#179,#76,.T.);
#221=EDGE_CURVE('',#181,#180,#77,.T.);
#222=EDGE_CURVE('',#181,#182,#78,.T.);
#223=EDGE_CURVE('',#182,#173,#79,.T.);
#224=EDGE_CURVE('',#183,#170,#80,.T.);
#225=EDGE_CURVE('',#183,#175,#81,.T.);
#226=EDGE_CURVE('',#184,#181,#82,.T.);
#227=EDGE_CURVE('',#185,#184,#83,.T.);
#228=EDGE_CURVE('',#176,#185,#84,.T.);
#229=EDGE_CURVE('',#186,#183,#85,.T.);
#230=EDGE_CURVE('',#186,#182,#86,.T.);
#231=EDGE_CURVE('',#185,#187,#87,.T.);
#232=EDGE_CURVE('',#177,#187,#88,.T.);
#233=EDGE_CURVE('',#184,#188,#89,.T.);
#234=EDGE_CURVE('',#187,#188,#90,.T.);
#235=EDGE_CURVE('',#189,#190,#91,.T.);
#236=EDGE_CURVE('',#179,#190,#92,.T.);
#237=EDGE_CURVE('',#189,#178,#93,.T.);
#238=EDGE_CURVE('',#186,#174,#94,.T.);
#239=EDGE_CURVE('',#188,#180,#95,.T.);
#240=EDGE_CURVE('',#191,#192,#96,.T.);
#241=EDGE_CURVE('',#192,#193,#97,.T.);
#242=EDGE_CURVE('',#190,#193,#98,.T.);
#243=EDGE_CURVE('',#194,#189,#99,.T.);
#244=EDGE_CURVE('',#191,#194,#100,.T.);
#245=EDGE_CURVE('',#191,#195,#101,.T.);
#246=EDGE_CURVE('',#196,#194,#102,.T.);
#247=EDGE_CURVE('',#195,#196,#103,.T.);
#248=EDGE_CURVE('',#195,#197,#104,.T.);
#249=EDGE_CURVE('',#198,#196,#105,.T.);
#250=EDGE_CURVE('',#197,#198,#106,.T.);
#251=EDGE_CURVE('',#197,#192,#107,.T.);
#252=EDGE_CURVE('',#193,#198,#108,.T.);
#253=ORIENTED_EDGE('',*,*,#199,.F.);
#254=ORIENTED_EDGE('',*,*,#200,.F.);
#255=ORIENTED_EDGE('',*,*,#201,.F.);
#256=ORIENTED_EDGE('',*,*,#202,.T.);
#257=ORIENTED_EDGE('',*,*,#203,.F.);
#258=ORIENTED_EDGE('',*,*,#202,.F.);
#259=ORIENTED_EDGE('',*,*,#204,.F.);
#260=ORIENTED_EDGE('',*,*,#205,.T.);
#261=ORIENTED_EDGE('',*,*,#206,.F.);
#262=ORIENTED_EDGE('',*,*,#205,.F.);
#263=ORIENTED_EDGE('',*,*,#207,.F.);
#264=ORIENTED_EDGE('',*,*,#208,.F.);
#265=ORIENTED_EDGE('',*,*,#209,.F.);
#266=ORIENTED_EDGE('',*,*,#210,.F.);
#267=ORIENTED_EDGE('',*,*,#211,.F.);
#268=ORIENTED_EDGE('',*,*,#200,.T.);
#269=ORIENTED_EDGE('',*,*,#212,.F.);
#270=ORIENTED_EDGE('',*,*,#213,.F.);
#271=ORIENTED_EDGE('',*,*,#214,.F.);
#272=ORIENTED_EDGE('',*,*,#210,.T.);
#273=ORIENTED_EDGE('',*,*,#212,.T.);
#274=ORIENTED_EDGE('',*,*,#209,.T.);
#275=ORIENTED_EDGE('',*,*,#199,.T.);
#276=ORIENTED_EDGE('',*,*,#203,.T.);
#277=ORIENTED_EDGE('',*,*,#206,.T.);
#278=ORIENTED_EDGE('',*,*,#215,.F.);
#279=ORIENTED_EDGE('',*,*,#216,.T.);
#280=ORIENTED_EDGE('',*,*,#217,.T.);
#281=ORIENTED_EDGE('',*,*,#218,.F.);
#282=ORIENTED_EDGE('',*,*,#219,.T.);
#283=ORIENTED_EDGE('',*,*,#220,.F.);
#284=ORIENTED_EDGE('',*,*,#221,.F.);
#285=ORIENTED_EDGE('',*,*,#222,.T.);
#286=ORIENTED_EDGE('',*,*,#223,.T.);
#287=ORIENTED_EDGE('',*,*,#208,.T.);
#288=ORIENTED_EDGE('',*,*,#224,.F.);
#289=ORIENTED_EDGE('',*,*,#225,.T.);
#290=ORIENTED_EDGE('',*,*,#215,.T.);
#291=ORIENTED_EDGE('',*,*,#226,.F.);
#292=ORIENTED_EDGE('',*,*,#227,.F.);
#293=ORIENTED_EDGE('',*,*,#228,.F.);
#294=ORIENTED_EDGE('',*,*,#216,.F.);
#295=ORIENTED_EDGE('',*,*,#225,.F.);
#296=ORIENTED_EDGE('',*,*,#229,.F.);
#297=ORIENTED_EDGE('',*,*,#230,.T.);
#298=ORIENTED_EDGE('',*,*,#222,.F.);
#299=ORIENTED_EDGE('',*,*,#228,.T.);
#300=ORIENTED_EDGE('',*,*,#231,.T.);
#301=ORIENTED_EDGE('',*,*,#232,.F.);
#302=ORIENTED_EDGE('',*,*,#217,.F.);
#303=ORIENTED_EDGE('',*,*,#227,.T.);
#304=ORIENTED_EDGE('',*,*,#233,.T.);
#305=ORIENTED_EDGE('',*,*,#234,.F.);
#306=ORIENTED_EDGE('',*,*,#231,.F.);
#307=ORIENTED_EDGE('',*,*,#235,.T.);
#308=ORIENTED_EDGE('',*,*,#236,.F.);
#309=ORIENTED_EDGE('',*,*,#219,.F.);
#310=ORIENTED_EDGE('',*,*,#237,.F.);
#311=ORIENTED_EDGE('',*,*,#213,.T.);
#312=ORIENTED_EDGE('',*,*,#223,.F.);
#313=ORIENTED_EDGE('',*,*,#230,.F.);
#314=ORIENTED_EDGE('',*,*,#238,.T.);
#315=ORIENTED_EDGE('',*,*,#226,.T.);
#316=ORIENTED_EDGE('',*,*,#221,.T.);
#317=ORIENTED_EDGE('',*,*,#239,.F.);
#318=ORIENTED_EDGE('',*,*,#233,.F.);
#319=ORIENTED_EDGE('',*,*,#240,.T.);
#320=ORIENTED_EDGE('',*,*,#241,.T.);
#321=ORIENTED_EDGE('',*,*,#242,.F.);
#322=ORIENTED_EDGE('',*,*,#235,.F.);
#323=ORIENTED_EDGE('',*,*,#243,.F.);
#324=ORIENTED_EDGE('',*,*,#244,.F.);
#325=ORIENTED_EDGE('',*,*,#214,.T.);
#326=ORIENTED_EDGE('',*,*,#238,.F.);
#327=ORIENTED_EDGE('',*,*,#229,.T.);
#328=ORIENTED_EDGE('',*,*,#224,.T.);
#329=ORIENTED_EDGE('',*,*,#207,.T.);
#330=ORIENTED_EDGE('',*,*,#204,.T.);
#331=ORIENTED_EDGE('',*,*,#201,.T.);
#332=ORIENTED_EDGE('',*,*,#211,.T.);
#333=ORIENTED_EDGE('',*,*,#245,.F.);
#334=ORIENTED_EDGE('',*,*,#244,.T.);
#335=ORIENTED_EDGE('',*,*,#246,.F.);
#336=ORIENTED_EDGE('',*,*,#247,.F.);
#337=ORIENTED_EDGE('',*,*,#248,.F.);
#338=ORIENTED_EDGE('',*,*,#247,.T.);
#339=ORIENTED_EDGE('',*,*,#249,.F.);
#340=ORIENTED_EDGE('',*,*,#250,.F.);
#341=ORIENTED_EDGE('',*,*,#251,.F.);
#342=ORIENTED_EDGE('',*,*,#250,.T.);
#343=ORIENTED_EDGE('',*,*,#252,.F.);
#344=ORIENTED_EDGE('',*,*,#241,.F.);
#345=ORIENTED_EDGE('',*,*,#220,.T.);
#346=ORIENTED_EDGE('',*,*,#236,.T.);
#347=ORIENTED_EDGE('',*,*,#242,.T.);
#348=ORIENTED_EDGE('',*,*,#252,.T.);
#349=ORIENTED_EDGE('',*,*,#249,.T.);
#350=ORIENTED_EDGE('',*,*,#246,.T.);
#351=ORIENTED_EDGE('',*,*,#243,.T.);
#352=ORIENTED_EDGE('',*,*,#237,.T.);
#353=ORIENTED_EDGE('',*,*,#218,.T.);
#354=ORIENTED_EDGE('',*,*,#232,.T.);
#355=ORIENTED_EDGE('',*,*,#234,.T.);
#356=ORIENTED_EDGE('',*,*,#239,.T.);
#357=ORIENTED_EDGE('',*,*,#240,.F.);
#358=ORIENTED_EDGE('',*,*,#245,.T.);
#359=ORIENTED_EDGE('',*,*,#248,.T.);
#360=ORIENTED_EDGE('',*,*,#251,.T.);
#361=PLANE('',#413);
#362=PLANE('',#414);
#363=PLANE('',#415);
#364=PLANE('',#416);
#365=PLANE('',#417);
#366=PLANE('',#418);
#367=PLANE('',#419);
#368=PLANE('',#420);
#369=PLANE('',#421);
#370=PLANE('',#422);
#371=PLANE('',#423);
#372=PLANE('',#424);
#373=PLANE('',#425);
#374=PLANE('',#426);
#375=PLANE('',#427);
#376=PLANE('',#428);
#377=PLANE('',#429);
#378=PLANE('',#430);
#379=PLANE('',#431);
#380=ADVANCED_FACE('',(#16),#361,.F.);
#381=ADVANCED_FACE('',(#17),#362,.F.);
#382=ADVANCED_FACE('',(#18),#363,.F.);
#383=ADVANCED_FACE('',(#19),#364,.F.);
#384=ADVANCED_FACE('',(#20),#365,.F.);
#385=ADVANCED_FACE('',(#21),#366,.T.);
#386=ADVANCED_FACE('',(#22),#367,.T.);
#387=ADVANCED_FACE('',(#23),#368,.T.);
#388=ADVANCED_FACE('',(#24),#369,.T.);
#389=ADVANCED_FACE('',(#25),#370,.T.);
#390=ADVANCED_FACE('',(#26),#371,.T.);
#391=ADVANCED_FACE('',(#27),#372,.T.);
#392=ADVANCED_FACE('',(#28),#373,.T.);
#393=ADVANCED_FACE('',(#29,#15),#374,.T.);
#394=ADVANCED_FACE('',(#30),#375,.T.);
#395=ADVANCED_FACE('',(#31),#376,.T.);
#396=ADVANCED_FACE('',(#32),#377,.T.);
#397=ADVANCED_FACE('',(#33),#378,.T.);
#398=ADVANCED_FACE('',(#34),#379,.F.);
#399=CLOSED_SHELL('',(#380,#381,#382,#383,#384,#385,#386,#387,#388,#389,
#390,#391,#392,#393,#394,#395,#396,#397,#398));
#400=DERIVED_UNIT_ELEMENT(#402,1.);
#401=DERIVED_UNIT_ELEMENT(#641,-3.);
#402=(
MASS_UNIT()
NAMED_UNIT(*)
SI_UNIT(.KILO.,.GRAM.)
);
#403=DERIVED_UNIT((#400,#401));
#404=MEASURE_REPRESENTATION_ITEM('density measure',
POSITIVE_RATIO_MEASURE(7850.),#403);
#405=PROPERTY_DEFINITION_REPRESENTATION(#410,#407);
#406=PROPERTY_DEFINITION_REPRESENTATION(#411,#408);
#407=REPRESENTATION('material name',(#409),#638);
#408=REPRESENTATION('density',(#404),#638);
#409=DESCRIPTIVE_REPRESENTATION_ITEM('Steel','Steel');
#410=PROPERTY_DEFINITION('material property','material name',#648);
#411=PROPERTY_DEFINITION('material property','density of part',#648);
#412=AXIS2_PLACEMENT_3D('',#526,#432,#433);
#413=AXIS2_PLACEMENT_3D('',#527,#434,#435);
#414=AXIS2_PLACEMENT_3D('',#536,#440,#441);
#415=AXIS2_PLACEMENT_3D('',#542,#445,#446);
#416=AXIS2_PLACEMENT_3D('',#548,#450,#451);
#417=AXIS2_PLACEMENT_3D('',#554,#455,#456);
#418=AXIS2_PLACEMENT_3D('',#560,#460,#461);
#419=AXIS2_PLACEMENT_3D('',#578,#471,#472);
#420=AXIS2_PLACEMENT_3D('',#582,#475,#476);
#421=AXIS2_PLACEMENT_3D('',#591,#482,#483);
#422=AXIS2_PLACEMENT_3D('',#595,#486,#487);
#423=AXIS2_PLACEMENT_3D('',#599,#490,#491);
#424=AXIS2_PLACEMENT_3D('',#605,#495,#496);
#425=AXIS2_PLACEMENT_3D('',#607,#498,#499);
#426=AXIS2_PLACEMENT_3D('',#609,#501,#502);
#427=AXIS2_PLACEMENT_3D('',#619,#508,#509);
#428=AXIS2_PLACEMENT_3D('',#625,#513,#514);
#429=AXIS2_PLACEMENT_3D('',#631,#518,#519);
#430=AXIS2_PLACEMENT_3D('',#634,#522,#523);
#431=AXIS2_PLACEMENT_3D('',#635,#524,#525);
#432=DIRECTION('axis',(0.,0.,1.));
#433=DIRECTION('refdir',(1.,0.,0.));
#434=DIRECTION('center_axis',(0.,0.,1.));
#435=DIRECTION('ref_axis',(0.,-1.,0.));
#436=DIRECTION('',(0.,1.,0.));
#437=DIRECTION('',(1.,0.,0.));
#438=DIRECTION('',(0.,-1.,0.));
#439=DIRECTION('',(1.,0.,0.));
#440=DIRECTION('center_axis',(0.,1.,0.));
#441=DIRECTION('ref_axis',(0.,0.,1.));
#442=DIRECTION('',(0.,0.,-1.));
#443=DIRECTION('',(0.,0.,1.));
#444=DIRECTION('',(1.,0.,0.));
#445=DIRECTION('center_axis',(0.,0.,-1.));
#446=DIRECTION('ref_axis',(0.,1.,0.));
#447=DIRECTION('',(0.,-1.,0.));
#448=DIRECTION('',(0.,1.,0.));
#449=DIRECTION('',(-1.,0.,0.));
#450=DIRECTION('center_axis',(0.,-1.,0.));
#451=DIRECTION('ref_axis',(0.,0.,-1.));
#452=DIRECTION('',(0.,0.,1.));
#453=DIRECTION('',(1.,0.,0.));
#454=DIRECTION('',(0.,0.,-1.));
#455=DIRECTION('center_axis',(0.,0.,-1.));
#456=DIRECTION('ref_axis',(0.,1.,0.));
#457=DIRECTION('',(0.,-1.,0.));
#458=DIRECTION('',(0.999999999999964,-2.68220896308207E-7,0.));
#459=DIRECTION('',(0.,1.,0.));
#460=DIRECTION('center_axis',(1.,0.,0.));
#461=DIRECTION('ref_axis',(0.,1.,0.));
#462=DIRECTION('',(0.,0.,1.));
#463=DIRECTION('',(0.,1.,0.));
#464=DIRECTION('',(0.,0.,1.));
#465=DIRECTION('',(0.,1.,0.));
#466=DIRECTION('',(0.,-1.,-1.32454761726643E-8));
#467=DIRECTION('',(0.,1.,0.));
#468=DIRECTION('',(0.,0.,1.));
#469=DIRECTION('',(0.,1.,0.));
#470=DIRECTION('',(0.,0.,1.));
#471=DIRECTION('center_axis',(0.,-1.,0.));
#472=DIRECTION('ref_axis',(1.,0.,0.));
#473=DIRECTION('',(0.,0.,1.));
#474=DIRECTION('',(1.,0.,0.));
#475=DIRECTION('center_axis',(0.,0.,1.));
#476=DIRECTION('ref_axis',(1.,0.,0.));
#477=DIRECTION('',(-1.,0.,0.));
#478=DIRECTION('',(0.,-1.,0.));
#479=DIRECTION('',(1.,0.,0.));
#480=DIRECTION('',(0.,1.,0.));
#481=DIRECTION('',(0.999999999999964,-2.68220896308207E-7,0.));
#482=DIRECTION('center_axis',(0.,-1.,0.));
#483=DIRECTION('ref_axis',(1.,0.,0.));
#484=DIRECTION('',(0.,0.,1.));
#485=DIRECTION('',(1.,0.,0.));
#486=DIRECTION('center_axis',(-1.,0.,0.));
#487=DIRECTION('ref_axis',(0.,-1.,0.));
#488=DIRECTION('',(0.,0.,1.));
#489=DIRECTION('',(0.,-1.,0.));
#490=DIRECTION('center_axis',(0.,-1.32454761726643E-8,1.));
#491=DIRECTION('ref_axis',(0.,-1.,-1.32454761726643E-8));
#492=DIRECTION('',(0.,-1.,-1.32454761726643E-8));
#493=DIRECTION('',(-0.999999999999964,2.68220896308207E-7,0.));
#494=DIRECTION('',(1.,0.,0.));
#495=DIRECTION('center_axis',(2.68220896308207E-7,0.999999999999964,0.));
#496=DIRECTION('ref_axis',(-0.999999999999964,2.68220896308207E-7,0.));
#497=DIRECTION('',(0.,0.,1.));
#498=DIRECTION('center_axis',(0.,1.,0.));
#499=DIRECTION('ref_axis',(-1.,0.,0.));
#500=DIRECTION('',(-1.,0.,0.));
#501=DIRECTION('center_axis',(-1.,0.,0.));
#502=DIRECTION('ref_axis',(0.,-1.,0.));
#503=DIRECTION('',(0.,-1.,0.));
#504=DIRECTION('',(0.,0.,1.));
#505=DIRECTION('',(0.,-1.,0.));
#506=DIRECTION('',(0.,-1.,0.));
#507=DIRECTION('',(0.,0.,1.));
#508=DIRECTION('center_axis',(0.,1.,0.));
#509=DIRECTION('ref_axis',(-1.,0.,0.));
#510=DIRECTION('',(1.,0.,0.));
#511=DIRECTION('',(-1.,0.,0.));
#512=DIRECTION('',(0.,0.,1.));
#513=DIRECTION('center_axis',(1.,0.,0.));
#514=DIRECTION('ref_axis',(0.,1.,0.));
#515=DIRECTION('',(0.,-1.,0.));
#516=DIRECTION('',(0.,1.,0.));
#517=DIRECTION('',(0.,0.,1.));
#518=DIRECTION('center_axis',(0.,-1.,0.));
#519=DIRECTION('ref_axis',(1.,0.,0.));
#520=DIRECTION('',(-1.,0.,0.));
#521=DIRECTION('',(1.,0.,0.));
#522=DIRECTION('center_axis',(0.,0.,1.));
#523=DIRECTION('ref_axis',(1.,0.,0.));
#524=DIRECTION('center_axis',(0.,0.,1.));
#525=DIRECTION('ref_axis',(1.,0.,0.));
#526=CARTESIAN_POINT('',(0.,0.,0.));
#527=CARTESIAN_POINT('Origin',(-1.00000001490116,37.000000551343,6.50000009685755));
#528=CARTESIAN_POINT('',(0.,26.0000003874302,6.50000009685755));
#529=CARTESIAN_POINT('',(0.,37.000000551343,6.50000009685755));
#530=CARTESIAN_POINT('',(0.,36.5000002756715,6.50000009685755));
#531=CARTESIAN_POINT('',(-1.00000001490116,26.0000003874302,6.50000009685755));
#532=CARTESIAN_POINT('',(-1.00000001490116,26.0000003874302,6.50000009685755));
#533=CARTESIAN_POINT('',(-1.00000001490116,37.000000551343,6.50000009685755));
#534=CARTESIAN_POINT('',(-1.00000001490116,40.500000603497,6.50000009685755));
#535=CARTESIAN_POINT('',(-1.00000001490116,37.000000551343,6.50000009685755));
#536=CARTESIAN_POINT('Origin',(-1.00000001490116,37.000000551343,2.5000000372529));
#537=CARTESIAN_POINT('',(0.,37.000000551343,2.5000000372529));
#538=CARTESIAN_POINT('',(0.,37.000000551343,1.25000001862645));
#539=CARTESIAN_POINT('',(-1.00000001490116,37.000000551343,2.5000000372529));
#540=CARTESIAN_POINT('',(-1.00000001490116,37.000000551343,1.25000001862645));
#541=CARTESIAN_POINT('',(-1.00000001490116,37.000000551343,2.5000000372529));
#542=CARTESIAN_POINT('Origin',(-1.00000001490116,26.0000003874302,2.5000000372529));
#543=CARTESIAN_POINT('',(0.,36.,2.5000000372529));
#544=CARTESIAN_POINT('',(0.,31.0000001937151,2.5000000372529));
#545=CARTESIAN_POINT('',(-1.00000001490116,36.,2.5000000372529));
#546=CARTESIAN_POINT('',(-1.00000001490116,35.0000005215406,2.5000000372529));
#547=CARTESIAN_POINT('',(-1.00000001490116,36.,2.5000000372529));
#548=CARTESIAN_POINT('Origin',(-1.00000001490116,26.0000003874302,6.50000009685755));
#549=CARTESIAN_POINT('',(0.,26.0000003874302,2.5000000372529));
#550=CARTESIAN_POINT('',(0.,26.0000003874302,3.25000004842877));
#551=CARTESIAN_POINT('',(-1.00000001490116,26.0000003874302,2.5000000372529));
#552=CARTESIAN_POINT('',(-1.00000001490116,26.0000003874302,2.5000000372529));
#553=CARTESIAN_POINT('',(-1.00000001490116,26.0000003874302,3.25000004842877));
#554=CARTESIAN_POINT('Origin',(-1.00000001490116,26.0000003874302,2.5000000372529));
#555=CARTESIAN_POINT('',(0.,27.,2.5000000372529));
#556=CARTESIAN_POINT('',(0.,31.0000001937151,2.5000000372529));
#557=CARTESIAN_POINT('',(-1.00000001490116,27.0000002682209,2.5000000372529));
#558=CARTESIAN_POINT('',(-0.499999873340148,27.0000001341104,2.5000000372529));
#559=CARTESIAN_POINT('',(-1.00000001490116,35.0000005215406,2.5000000372529));
#560=CARTESIAN_POINT('Origin',(0.,36.,0.));
#561=CARTESIAN_POINT('',(0.,36.,0.5));
#562=CARTESIAN_POINT('',(0.,36.,0.));
#563=CARTESIAN_POINT('',(0.,42.5000006332994,0.5));
#564=CARTESIAN_POINT('',(0.,28.6250001583248,0.5));
#565=CARTESIAN_POINT('',(0.,42.5,8.));
#566=CARTESIAN_POINT('',(0.,42.5,0.));
#567=CARTESIAN_POINT('',(0.,36.,8.));
#568=CARTESIAN_POINT('',(0.,42.5,8.));
#569=CARTESIAN_POINT('',(0.,27.,8.));
#570=CARTESIAN_POINT('',(-1.49011611383365E-8,36.0000005364418,8.00000011920929));
#571=CARTESIAN_POINT('',(0.,0.,8.));
#572=CARTESIAN_POINT('',(0.,0.,8.));
#573=CARTESIAN_POINT('',(0.,0.,0.5));
#574=CARTESIAN_POINT('',(0.,0.,0.));
#575=CARTESIAN_POINT('',(-1.49011611383365E-8,27.0000004023314,0.500000007450581));
#576=CARTESIAN_POINT('',(0.,28.6250001583248,0.5));
#577=CARTESIAN_POINT('',(0.,27.,0.));
#578=CARTESIAN_POINT('Origin',(-1.00000001490116,36.,0.));
#579=CARTESIAN_POINT('',(-1.,36.,0.5));
#580=CARTESIAN_POINT('',(-1.00000001490116,36.,0.));
#581=CARTESIAN_POINT('',(-0.500000007450581,36.,0.5));
#582=CARTESIAN_POINT('Origin',(37.5,21.2500003166497,0.5));
#583=CARTESIAN_POINT('',(75.,0.,0.5));
#584=CARTESIAN_POINT('',(56.25,0.,0.5));
#585=CARTESIAN_POINT('',(75.,42.5000006332994,0.5));
#586=CARTESIAN_POINT('',(75.,31.8750001583248,0.5));
#587=CARTESIAN_POINT('',(18.75,42.5,0.5));
#588=CARTESIAN_POINT('',(-1.00000001490116,27.0000004023314,0.500000007450581));
#589=CARTESIAN_POINT('',(-1.,0.,0.5));
#590=CARTESIAN_POINT('',(-1.00000014901165,27.0000002682209,0.500000007450581));
#591=CARTESIAN_POINT('Origin',(0.,42.5,0.));
#592=CARTESIAN_POINT('',(75.,42.5,8.));
#593=CARTESIAN_POINT('',(75.,42.5,0.));
#594=CARTESIAN_POINT('',(75.,42.5,8.));
#595=CARTESIAN_POINT('Origin',(75.,42.5,0.));
#596=CARTESIAN_POINT('',(75.,0.,8.));
#597=CARTESIAN_POINT('',(75.,0.,0.));
#598=CARTESIAN_POINT('',(75.,0.,8.));
#599=CARTESIAN_POINT('Origin',(-1.00000001490116,36.0000005364418,8.00000011920929));
#600=CARTESIAN_POINT('',(-1.00000001490116,36.,8.));
#601=CARTESIAN_POINT('',(-1.00000001490109,27.0000002682209,8.));
#602=CARTESIAN_POINT('',(-1.00000001490116,36.0000005364418,8.00000011920929));
#603=CARTESIAN_POINT('',(-1.50000002235174,27.0000004023314,8.));
#604=CARTESIAN_POINT('',(0.,36.,8.));
#605=CARTESIAN_POINT('Origin',(0.,27.,0.));
#606=CARTESIAN_POINT('',(-1.00000001490109,27.0000002682209,0.));
#607=CARTESIAN_POINT('Origin',(75.,0.,0.));
#608=CARTESIAN_POINT('',(0.,0.,8.));
#609=CARTESIAN_POINT('Origin',(-1.00000001490116,44.0000006556511,0.));
#610=CARTESIAN_POINT('',(-1.00000001490116,44.0000006556511,0.));
#611=CARTESIAN_POINT('',(-1.00000001490116,-1.00000001490116,0.));
#612=CARTESIAN_POINT('',(-1.00000001490116,27.5000004097819,0.));
#613=CARTESIAN_POINT('',(-1.00000001490116,-1.00000001490116,8.));
#614=CARTESIAN_POINT('',(-1.00000001490116,-1.00000001490116,0.));
#615=CARTESIAN_POINT('',(-1.00000001490116,-1.00000001490116,8.));
#616=CARTESIAN_POINT('',(-1.00000001490116,44.0000006556511,8.));
#617=CARTESIAN_POINT('',(-1.00000001490116,36.0000005364418,8.));
#618=CARTESIAN_POINT('',(-1.00000001490116,44.0000006556511,0.));
#619=CARTESIAN_POINT('Origin',(76.0000011324883,44.0000006556511,0.));
#620=CARTESIAN_POINT('',(76.0000011324883,44.0000006556511,0.));
#621=CARTESIAN_POINT('',(-1.00000001490116,44.0000006556511,0.));
#622=CARTESIAN_POINT('',(76.0000011324883,44.0000006556511,8.));
#623=CARTESIAN_POINT('',(-1.00000001490116,44.0000006556511,8.));
#624=CARTESIAN_POINT('',(76.0000011324883,44.0000006556511,0.));
#625=CARTESIAN_POINT('Origin',(76.0000011324883,-1.00000001490116,0.));
#626=CARTESIAN_POINT('',(76.0000011324883,-1.00000001490116,0.));
#627=CARTESIAN_POINT('',(76.0000011324883,44.0000006556511,0.));
#628=CARTESIAN_POINT('',(76.0000011324883,-1.00000001490116,8.));
#629=CARTESIAN_POINT('',(76.0000011324883,44.0000006556511,8.));
#630=CARTESIAN_POINT('',(76.0000011324883,-1.00000001490116,0.));
#631=CARTESIAN_POINT('Origin',(-1.00000001490116,-1.00000001490116,0.));
#632=CARTESIAN_POINT('',(76.0000011324883,-1.00000001490116,0.));
#633=CARTESIAN_POINT('',(76.0000011324883,-1.00000001490116,8.));
#634=CARTESIAN_POINT('Origin',(37.5000005587935,21.500000320375,8.));
#635=CARTESIAN_POINT('Origin',(37.5000005587935,21.500000320375,0.));
#636=UNCERTAINTY_MEASURE_WITH_UNIT(LENGTH_MEASURE(0.01),#640,
'DISTANCE_ACCURACY_VALUE',
'Maximum model space distance between geometric entities at asserted c
onnectivities');
#637=UNCERTAINTY_MEASURE_WITH_UNIT(LENGTH_MEASURE(0.01),#640,
'DISTANCE_ACCURACY_VALUE',
'Maximum model space distance between geometric entities at asserted c
onnectivities');
#638=(
GEOMETRIC_REPRESENTATION_CONTEXT(3)
GLOBAL_UNCERTAINTY_ASSIGNED_CONTEXT((#636))
GLOBAL_UNIT_ASSIGNED_CONTEXT((#640,#642,#643))
REPRESENTATION_CONTEXT('','3D')
);
#639=(
GEOMETRIC_REPRESENTATION_CONTEXT(3)
GLOBAL_UNCERTAINTY_ASSIGNED_CONTEXT((#637))
GLOBAL_UNIT_ASSIGNED_CONTEXT((#640,#642,#643))
REPRESENTATION_CONTEXT('','3D')
);
#640=(
LENGTH_UNIT()
NAMED_UNIT(*)
SI_UNIT(.MILLI.,.METRE.)
);
#641=(
LENGTH_UNIT()
NAMED_UNIT(*)
SI_UNIT($,.METRE.)
);
#642=(
NAMED_UNIT(*)
PLANE_ANGLE_UNIT()
SI_UNIT($,.RADIAN.)
);
#643=(
NAMED_UNIT(*)
SI_UNIT($,.STERADIAN.)
SOLID_ANGLE_UNIT()
);
#644=SHAPE_DEFINITION_REPRESENTATION(#645,#646);
#645=PRODUCT_DEFINITION_SHAPE('',$,#648);
#646=SHAPE_REPRESENTATION('',(#412),#638);
#647=PRODUCT_DEFINITION_CONTEXT('part definition',#652,'design');
#648=PRODUCT_DEFINITION('2026-08-16-13-39-00-159','base',#649,#647);
#649=PRODUCT_DEFINITION_FORMATION('',$,#654);
#650=PRODUCT_RELATED_PRODUCT_CATEGORY('base','base',(#654));
#651=APPLICATION_PROTOCOL_DEFINITION('international standard',
'automotive_design',2009,#652);
#652=APPLICATION_CONTEXT(
'Core Data for Automotive Mechanical Design Process');
#653=PRODUCT_CONTEXT('part definition',#652,'mechanical');
#654=PRODUCT('2026-08-16-13-39-00-159','base',$,(#653));
#655=PRESENTATION_STYLE_ASSIGNMENT((#656));
#656=SURFACE_STYLE_USAGE(.BOTH.,#657);
#657=SURFACE_SIDE_STYLE('',(#658));
#658=SURFACE_STYLE_FILL_AREA(#659);
#659=FILL_AREA_STYLE('Steel - Satin',(#660));
#660=FILL_AREA_STYLE_COLOUR('Steel - Satin',#661);
#661=COLOUR_RGB('Steel - Satin',0.627450980392157,0.627450980392157,0.627450980392157);
ENDSEC;
END-ISO-10303-21;
